<?xml version="1.0" encoding="UTF-8" standalone="no"?>
<!-- Created with Inkscape (http://www.inkscape.org/) -->

<svg
   xmlns:dc="http://purl.org/dc/elements/1.1/"
   xmlns:cc="http://creativecommons.org/ns#"
   xmlns:rdf="http://www.w3.org/1999/02/22-rdf-syntax-ns#"
   xmlns:svg="http://www.w3.org/2000/svg"
   xmlns="http://www.w3.org/2000/svg"
   xmlns:sodipodi="http://sodipodi.sourceforge.net/DTD/sodipodi-0.dtd"
   xmlns:inkscape="http://www.inkscape.org/namespaces/inkscape"
   width="1920px"
   height="1080px"
   viewBox="0 0 1920 1080"
   version="1.1"
   id="SVGRoot"
   inkscape:version="0.92.4 (33fec40, 2019-01-16)"
   sodipodi:docname="bg.svg">
  <defs
     id="defs815" />
  <sodipodi:namedview
     id="base"
     pagecolor="#ffffff"
     bordercolor="#666666"
     borderopacity="1.0"
     inkscape:pageopacity="0.0"
     inkscape:pageshadow="2"
     inkscape:zoom="0.49497475"
     inkscape:cx="941.58957"
     inkscape:cy="405.74691"
     inkscape:document-units="px"
     inkscape:current-layer="layer1"
     showgrid="false"
     inkscape:window-width="1920"
     inkscape:window-height="1037"
     inkscape:window-x="0"
     inkscape:window-y="0"
     inkscape:window-maximized="1" />
  <metadata
     id="metadata818">
    <rdf:RDF>
      <cc:Work
         rdf:about="">
        <dc:format>image/svg+xml</dc:format>
        <dc:type
           rdf:resource="http://purl.org/dc/dcmitype/StillImage" />
        <dc:title></dc:title>
      </cc:Work>
    </rdf:RDF>
  </metadata>
  <g
     inkscape:label="Layer 1"
     inkscape:groupmode="layer"
     id="layer1">
    <path
       style="fill:#fbfdff;fill-opacity:1;stroke:#0097ff;stroke-width:1;stroke-linecap:butt;stroke-linejoin:miter;stroke-miterlimit:4;stroke-dasharray:none;stroke-opacity:1"
       d="M 29.573601,-165.0686 C 293.9986,-7.124982 812.42559,-148.51654 918.50784,87.115453 978.28769,219.89964 884.32112,279.69061 914.46722,369.29099 c 33.30323,98.98401 181.33438,112.32492 193.94928,251.46255 9.3572,103.20692 -19.8032,158.59521 24.2436,218.83001 142.4583,194.81415 724.235,85.01636 670.7414,316.72765 -137.5661,595.8769 -1478.02829,491.3713 -1925.35079,53.7477 -352.49082,-344.84814 -362.04118,-1272.845611 88.89343,-1439.67109 28.1159836,-10.40165 36.8927231,49.17079 62.629461,64.54359 z"
       id="path1371"
       inkscape:connector-curvature="0"
       sodipodi:nodetypes="asasaaaaa" />
    <flowRoot
       xml:space="preserve"
       id="flowRoot1453"
       style="font-style:normal;font-weight:normal;font-size:40px;line-height:1.25;font-family:sans-serif;letter-spacing:0px;word-spacing:0px;fill:#000000;fill-opacity:1;stroke:none"><flowRegion
         id="flowRegion1455"><rect
           id="rect1457"
           width="290.92392"
           height="88.893425"
           x="12.121831"
           y="294.10132" /></flowRegion><flowPara
         id="flowPara1459" /></flowRoot>    <path
       sodipodi:nodetypes="aaaaa"
       inkscape:connector-curvature="0"
       id="path1487"
       d="m 147.34315,96.348833 c 90.04358,-61.909876 254.4039,-25.281486 322.20542,60.413517 64.81788,81.92393 64.05753,244.35919 -14.6457,313.05187 C 361.66539,551.19251 160.0499,535.33983 85.098896,436.8614 15.217963,345.04453 52.263536,161.72126 147.34315,96.348833 Z"
       style="fill:#f9f6ff;fill-opacity:1;stroke:#b380ff;stroke-width:0.90615654px;stroke-linecap:butt;stroke-linejoin:miter;stroke-opacity:1" />
    <path
       style="fill:#ffffff;fill-opacity:1;stroke:#b380ff;stroke-width:0.84775949px;stroke-linecap:butt;stroke-linejoin:miter;stroke-opacity:1"
       d="m 160.09757,109.06856 c 84.24074,-57.920112 238.0089,-23.65223 301.44096,56.52017 60.64071,76.64437 59.92936,228.61153 -13.70186,292.87732 C 360.60786,534.59994 171.98544,519.76888 101.86462,427.63687 36.487157,341.73711 71.145337,170.22808 160.09757,109.06856 Z"
       id="path1483"
       inkscape:connector-curvature="0"
       sodipodi:nodetypes="aaaaa" />
    <path
       style="fill:#ffffff;stroke:#b380ff;stroke-width:0.75419378px;stroke-linecap:butt;stroke-linejoin:miter;stroke-opacity:1"
       d="m 780.06231,476.43332 c 54.44632,34.48275 60.31913,124.89287 46.12882,187.75857 -15.13371,67.0451 -68.29609,130.33201 -130.44131,159.69264 -56.97384,26.9174 -155.37925,52.67633 -189.03633,-0.59436 -75.83311,-124.57682 80.79091,-133.61991 140.41756,-176.4625 42.69925,-34.80958 15.50006,-119.15634 57.32657,-155.00989 19.52606,-16.73768 53.87764,-29.14498 75.60469,-15.38446 z"
       id="path1485"
       inkscape:connector-curvature="0"
       sodipodi:nodetypes="aaaccaa" />
  </g>
</svg>
