<?xml version="1.0" encoding="UTF-8" standalone="no"?>
<!-- Created with Inkscape (http://www.inkscape.org/) -->

<svg
   xmlns:dc="http://purl.org/dc/elements/1.1/"
   xmlns:cc="http://creativecommons.org/ns#"
   xmlns:rdf="http://www.w3.org/1999/02/22-rdf-syntax-ns#"
   xmlns:svg="http://www.w3.org/2000/svg"
   xmlns="http://www.w3.org/2000/svg"
   xmlns:xlink="http://www.w3.org/1999/xlink"
   xmlns:sodipodi="http://sodipodi.sourceforge.net/DTD/sodipodi-0.dtd"
   xmlns:inkscape="http://www.inkscape.org/namespaces/inkscape"
   width="1920px"
   height="1080px"
   viewBox="0 0 1920 1080"
   version="1.1"
   id="SVGRoot"
   inkscape:version="0.92.4 (33fec40, 2019-01-16)"
   sodipodi:docname="home.svg">
  <defs
     id="defs1116">
    <linearGradient
       id="linearGradient1727"
       inkscape:collect="always">
      <stop
         id="stop1723"
         offset="0"
         style="stop-color:#660080;stop-opacity:1" />
      <stop
         id="stop1725"
         offset="1"
         style="stop-color:#0000d4;stop-opacity:1" />
    </linearGradient>
    <linearGradient
       inkscape:collect="always"
       id="linearGradient1678">
      <stop
         style="stop-color:#5500d4;stop-opacity:1"
         offset="0"
         id="stop1674" />
      <stop
         style="stop-color:#2a2aff;stop-opacity:1"
         offset="1"
         id="stop1676" />
    </linearGradient>
    <linearGradient
       inkscape:collect="always"
       xlink:href="#linearGradient1678"
       id="linearGradient1680"
       x1="1002.8571"
       y1="611.42859"
       x2="1005.7143"
       y2="1611.4286"
       gradientUnits="userSpaceOnUse"
       gradientTransform="translate(31.428571,-168.57143)" />
    <linearGradient
       inkscape:collect="always"
       xlink:href="#linearGradient1727"
       id="linearGradient1683"
       gradientUnits="userSpaceOnUse"
       gradientTransform="rotate(-178.46325,927.21843,476.50104)"
       x1="880.92914"
       y1="434.63489"
       x2="1005.7143"
       y2="1611.4286" />
    <clipPath
       id="clip0">
      <rect
         id="rect1739"
         fill="white"
         height="321"
         width="450" />
    </clipPath>
    <clipPath
       id="clip0-6">
      <rect
         id="rect1771"
         fill="white"
         height="221"
         width="450" />
    </clipPath>
  </defs>
  <sodipodi:namedview
     id="base"
     pagecolor="#ffffff"
     bordercolor="#666666"
     borderopacity="1.0"
     inkscape:pageopacity="0.0"
     inkscape:pageshadow="2"
     inkscape:zoom="0.35"
     inkscape:cx="960"
     inkscape:cy="540"
     inkscape:document-units="px"
     inkscape:current-layer="g2047"
     showgrid="false"
     inkscape:window-width="1920"
     inkscape:window-height="1037"
     inkscape:window-x="0"
     inkscape:window-y="0"
     inkscape:window-maximized="1" />
  <metadata
     id="metadata1119">
    <rdf:RDF>
      <cc:Work
         rdf:about="">
        <dc:format>image/svg+xml</dc:format>
        <dc:type
           rdf:resource="http://purl.org/dc/dcmitype/StillImage" />
        <dc:title></dc:title>
      </cc:Work>
    </rdf:RDF>
  </metadata>
  <g
     inkscape:label="Layer 1"
     inkscape:groupmode="layer"
     id="layer1">
    <g
       id="g1961">
      <g
         transform="matrix(0.50545089,0,0,0.53278071,236.30892,290.34724)"
         id="g1761"
         style="opacity:0.25;fill:none">
        <g
           transform="matrix(0.5905652,0,0,0.5905652,-176.4486,671.42857)"
           id="Frame"
           clip-path="url(#clip0)">
          <rect
             style="fill:#ffffff"
             y="0"
             x="0"
             width="450"
             height="321"
             id="rect1729" />
          <path
             style="fill:#ead1a1;stroke:#c2bba6;stroke-width:2"
             inkscape:connector-curvature="0"
             id="Vector"
             d="m 275.479,6.1841 c -27.2,-11.2 -73.667,-4.66667 -93.5,0 -52,9.6 -72.667,27.6667 -76.5,35.5 19.5,10 166,-4 170,-35.5 z" />
          <circle
             style="fill:#ead1a1;stroke:#c2bba6;stroke-width:2"
             id="Ellipse"
             cx="347.479"
             cy="40.684101"
             r="34" />
          <path
             style="fill:#ead1a1;stroke:#c2bba6;stroke-width:2"
             inkscape:connector-curvature="0"
             id="Vector 2"
             d="m 236.979,99.6841 c -56.8,-17.2 -116.333,2.1669 -139,12.4999 -86.5,39.434 -108.8333,79 -93.49999,101 1.66666,2.333 15.82469,-4.888 59.99999,-47.5 28.5,-34.5 102,-44.5 129.5,-46 50,0 74,18 86,1.5 -1,-12 -12,-12 -43,-21.4999 z" />
          <path
             style="fill:#ead1a1;stroke:#c2bba6;stroke-width:2"
             inkscape:connector-curvature="0"
             id="Vector 3"
             d="m 317.479,115.684 c 0,-9 107.5,24 126.5,71 -11.5,21.5 -136,-57 -126.5,-71 z" />
          <path
             style="fill:#ead1a1;stroke:#c2bba6;stroke-width:2"
             inkscape:connector-curvature="0"
             id="Vector 4"
             d="m 85.479,256.684 c 7.5,3.636 33,-33.5 70,-36 39,-12 94.5,2.5 106.5,-12 -38.8,-37.6 -109.833,-18 -140.5,-3.5 4,-12 20.5,-27 57,-33 79,-17 143,13 158,17 76,27 94,85.5 114,48.5 -9,-37.5 -122.5,-95.5 -208,-95.5 -107,-12.5 -194.5,60 -200,69.5 -11.5,11.5 -31,82 18,26 39.2,-44.8 44.5,-32.5 39,-14.5 -14.5,4 -30.5,25.5 -14,33.5 z" />
          <path
             style="fill:#ead1a1;stroke:#c2bba6;stroke-width:2"
             inkscape:connector-curvature="0"
             id="Vector 5"
             d="m 287.479,209.684 c 6,-10.4 36.167,4.333 51,13 18.5,13.5 41,28.5 54.5,46.5 -31,6 -43.893,-8.823 -64,-21.5 -23,-14.5 -49,-25 -41.5,-38 z" />
          <path
             style="fill:#ead1a1;stroke:#c3bca7"
             inkscape:connector-curvature="0"
             id="Vector 6"
             d="m 388.979,319.684 c -18,12.5 -71.5,-53.5 -130,-66.5 -36,-8 -45,-6.5 -130.5,14.5 0,-36 99,-43 133.5,-33.5 12.617,3.474 144.5,48.5 127,85.5 z" />
        </g>
      </g>
      <g
         transform="matrix(0.48287007,0,0,0.48287007,994.21139,803.78571)"
         id="g1791"
         style="opacity:0.4;fill:none">
        <g
           id="Frame-3"
           clip-path="url(#clip0-6)">
          <rect
             style="fill:#ffffff"
             y="0"
             x="0"
             width="450"
             height="221"
             id="rect1763" />
          <path
             style="fill:#ecf3cd;stroke:#c1c3a4;stroke-width:2"
             inkscape:connector-curvature="0"
             id="Vector 2-6"
             d="m 241.686,210.099 c 59.316,1.913 111.809,-32.202 131.029,-48.05 73.346,-60.478 84.678,-104.4762 64.173,-121.758 -2.214,-1.8225 -14.02,8.8176 -45.662,61.411 -18.599,40.7 -87.007,69.383 -113.181,77.949 -48.297,12.941 -76.138,1.766 -83.458,20.81 4.072,11.332 14.697,8.485 47.099,9.638 z" />
          <path
             style="fill:#ecf3cd;stroke:#c1c3a4;stroke-width:2"
             inkscape:connector-curvature="0"
             id="Vector 3-7"
             d="m 159.788,215.479 c 2.329,8.693 -110.0486,4.641 -140.5657,-35.84 5.5435,-23.744 146.1187,19.858 140.5657,35.84 z" />
          <path
             style="fill:#ecf3cd;stroke:#c1c3a4;stroke-width:2"
             inkscape:connector-curvature="0"
             id="Vector 4-5"
             d="M 347.389,19.2375 C 339.204,17.6662 324.184,60.1371 289.092,72.1282 254.527,93.8133 197.165,94.1718 189.327,111.284 236.536,137.56 300.076,100.243 325.945,78.3002 325.187,90.9266 313.132,109.686 279.429,124.928 207.52,161.796 137.936,149.383 122.412,149.401 42.0138,142.991 9.48623,91.1435 -0.25594,132.059 18.1431,165.952 142.787,192.6 225.374,170.471 331.963,154.851 397.717,62.1748 400.571,51.575 c 8.132,-14.0846 8.721,-87.2293 -24.116,-20.4553 -26.269,53.4192 -34.572,42.91 -33.918,24.0998 12.971,-7.6165 22.861,-32.5251 4.852,-35.982 z" />
          <path
             style="fill:#ecf3cd;stroke:#c1c3a4;stroke-width:2"
             inkscape:connector-curvature="0"
             id="Vector 5-3"
             d="m 164.437,116.918 c -3.104,11.598 -36.056,5.174 -52.627,0.642 -21.3637,-8.252 -46.9793,-16.917 -64.6781,-30.8096 28.3908,-13.819 44.6807,-2.8374 67.3841,4.203 25.969,8.0531 53.801,11.4656 49.921,25.9646 z" />
          <path
             style="fill:#ecf3cd;stroke:#c1c3a4;stroke-width:2"
             inkscape:connector-curvature="0"
             id="Vector 6-5"
             d="M 37.9253,36.9359 C 52.0767,20.2031 120.836,70.1074 180.707,67.5235 217.551,65.9334 225.856,62.1551 303.008,19.7416 312.325,54.5149 218.51,86.8995 182.727,86.6525 169.641,86.5622 30.5979,77.2045 37.9253,36.9359 Z" />
        </g>
      </g>
      <g
         transform="matrix(1.3174099,0,0,1.3174099,1451.7441,458.47197)"
         id="g1807"
         style="opacity:0.25;fill:none">
        <path
           style="fill:#e5e8c6"
           inkscape:connector-curvature="0"
           d="M 1.5,40 10,32 1.5,20.5 12.5,23 10,13 17.5,14 19,5 32,10 V 1 l 5.5,4 8,-2.5 44,43 c 0.2703,2.7029 0.4178,6.4509 0.2209,10.5 -0.2437,5.0085 -1.0145,10.4778 -2.7323,15 -1.175,3.0934 -2.7931,5.7436 -4.9886,7.5 -1.865,1.492 -3.504,2.8275 -5.0693,4 C 72.8526,85.5547 69.2744,87.503 63.5,88.23 59.6069,88.7201 54.7157,88.6552 48,88 35.9118,75.9118 15.4069,56.3421 2.76414,41.5 2.33342,40.9944 1.91183,40.4942 1.5,40 Z"
           id="path1793" />
        <path
           style="stroke:#b1a78c"
           inkscape:connector-curvature="0"
           d="M 45.5,2.5 37.5,5 32,1 v 9 L 19,5 17.5,14 10,13 12.5,23 1.5,20.5 10,32 1.5,40 c 0.41183,0.4942 0.83342,0.9944 1.26414,1.5 M 45.5,2.5 l 44,43 c 0.2703,2.7029 0.4178,6.4509 0.2209,10.5 M 45.5,2.5 c 0.432,2.24617 0.6311,6.54328 -0.2244,12 M 2.76414,41.5 C 15.4069,56.3421 35.9118,75.9118 48,88 c 6.7157,0.6552 11.6069,0.7201 15.5,0.23 M 2.76414,41.5 C 6.2428,42.3624 11.2394,43.0927 16.5,43.0044 M 45.2756,14.5 89.7209,56 M 45.2756,14.5 c -0.6049,3.8586 -1.7371,8.2969 -3.6872,13 M 89.7209,56 c -0.2437,5.0085 -1.0145,10.4778 -2.7323,15 M 41.5884,27.5 C 40.976,28.9771 40.2828,30.4804 39.5,32 37.7599,35.3778 35.1212,37.8017 32,39.4997 M 41.5884,27.5 86.9886,71 m 0,0 c -1.175,3.0934 -2.7931,5.7436 -4.9886,7.5 -1.865,1.492 -3.504,2.8275 -5.0693,4 M 32,39.4997 76.9307,82.5 M 32,39.4997 c -4.568,2.4851 -10.1695,3.4152 -15.5,3.5047 M 76.9307,82.5 C 72.8526,85.5547 69.2744,87.503 63.5,88.23 m -47,-45.2256 47,45.2256"
           id="path1795" />
      </g>
      <g
         style="opacity:0.4;fill:none"
         id="g1827"
         transform="matrix(0.16141673,0,0,0.21627732,1704.176,742.85665)">
        <g
           clip-path="url(#clip0)"
           id="g1825"
           transform="matrix(0.5905652,0,0,0.5905652,-176.4486,671.42857)">
          <rect
             id="rect1809"
             height="321"
             width="450"
             x="0"
             y="0"
             style="fill:#ffffff" />
          <path
             d="m 275.479,6.1841 c -27.2,-11.2 -73.667,-4.66667 -93.5,0 -52,9.6 -72.667,27.6667 -76.5,35.5 19.5,10 166,-4 170,-35.5 z"
             id="path1811"
             inkscape:connector-curvature="0"
             style="fill:#ead1a1;stroke:#c2bba6;stroke-width:2" />
          <circle
             r="34"
             cy="40.684101"
             cx="347.479"
             id="circle1813"
             style="fill:#ead1a1;stroke:#c2bba6;stroke-width:2" />
          <path
             d="m 236.979,99.6841 c -56.8,-17.2 -116.333,2.1669 -139,12.4999 -86.5,39.434 -108.8333,79 -93.49999,101 1.66666,2.333 15.82469,-4.888 59.99999,-47.5 28.5,-34.5 102,-44.5 129.5,-46 50,0 74,18 86,1.5 -1,-12 -12,-12 -43,-21.4999 z"
             id="path1815"
             inkscape:connector-curvature="0"
             style="fill:#ead1a1;stroke:#c2bba6;stroke-width:2" />
          <path
             d="m 317.479,115.684 c 0,-9 107.5,24 126.5,71 -11.5,21.5 -136,-57 -126.5,-71 z"
             id="path1817"
             inkscape:connector-curvature="0"
             style="fill:#ead1a1;stroke:#c2bba6;stroke-width:2" />
          <path
             d="m 85.479,256.684 c 7.5,3.636 33,-33.5 70,-36 39,-12 94.5,2.5 106.5,-12 -38.8,-37.6 -109.833,-18 -140.5,-3.5 4,-12 20.5,-27 57,-33 79,-17 143,13 158,17 76,27 94,85.5 114,48.5 -9,-37.5 -122.5,-95.5 -208,-95.5 -107,-12.5 -194.5,60 -200,69.5 -11.5,11.5 -31,82 18,26 39.2,-44.8 44.5,-32.5 39,-14.5 -14.5,4 -30.5,25.5 -14,33.5 z"
             id="path1819"
             inkscape:connector-curvature="0"
             style="fill:#ead1a1;stroke:#c2bba6;stroke-width:2" />
          <path
             d="m 287.479,209.684 c 6,-10.4 36.167,4.333 51,13 18.5,13.5 41,28.5 54.5,46.5 -31,6 -43.893,-8.823 -64,-21.5 -23,-14.5 -49,-25 -41.5,-38 z"
             id="path1821"
             inkscape:connector-curvature="0"
             style="fill:#ead1a1;stroke:#c2bba6;stroke-width:2" />
          <path
             d="m 388.979,319.684 c -18,12.5 -71.5,-53.5 -130,-66.5 -36,-8 -45,-6.5 -130.5,14.5 0,-36 99,-43 133.5,-33.5 12.617,3.474 144.5,48.5 127,85.5 z"
             id="path1823"
             inkscape:connector-curvature="0"
             style="fill:#ead1a1;stroke:#c3bca7" />
        </g>
      </g>
      <g
         style="opacity:0.3;fill:none"
         id="g1833"
         transform="matrix(0.84060438,0,0,0.83774391,714.81341,706.97676)">
        <path
           id="path1829"
           d="M 1.5,40 10,32 1.5,20.5 12.5,23 10,13 17.5,14 19,5 32,10 V 1 l 5.5,4 8,-2.5 44,43 c 0.2703,2.7029 0.4178,6.4509 0.2209,10.5 -0.2437,5.0085 -1.0145,10.4778 -2.7323,15 -1.175,3.0934 -2.7931,5.7436 -4.9886,7.5 -1.865,1.492 -3.504,2.8275 -5.0693,4 C 72.8526,85.5547 69.2744,87.503 63.5,88.23 59.6069,88.7201 54.7157,88.6552 48,88 35.9118,75.9118 15.4069,56.3421 2.76414,41.5 2.33342,40.9944 1.91183,40.4942 1.5,40 Z"
           inkscape:connector-curvature="0"
           style="fill:#e5e8c6" />
        <path
           id="path1831"
           d="M 45.5,2.5 37.5,5 32,1 v 9 L 19,5 17.5,14 10,13 12.5,23 1.5,20.5 10,32 1.5,40 c 0.41183,0.4942 0.83342,0.9944 1.26414,1.5 M 45.5,2.5 l 44,43 c 0.2703,2.7029 0.4178,6.4509 0.2209,10.5 M 45.5,2.5 c 0.432,2.24617 0.6311,6.54328 -0.2244,12 M 2.76414,41.5 C 15.4069,56.3421 35.9118,75.9118 48,88 c 6.7157,0.6552 11.6069,0.7201 15.5,0.23 M 2.76414,41.5 C 6.2428,42.3624 11.2394,43.0927 16.5,43.0044 M 45.2756,14.5 89.7209,56 M 45.2756,14.5 c -0.6049,3.8586 -1.7371,8.2969 -3.6872,13 M 89.7209,56 c -0.2437,5.0085 -1.0145,10.4778 -2.7323,15 M 41.5884,27.5 C 40.976,28.9771 40.2828,30.4804 39.5,32 37.7599,35.3778 35.1212,37.8017 32,39.4997 M 41.5884,27.5 86.9886,71 m 0,0 c -1.175,3.0934 -2.7931,5.7436 -4.9886,7.5 -1.865,1.492 -3.504,2.8275 -5.0693,4 M 32,39.4997 76.9307,82.5 M 32,39.4997 c -4.568,2.4851 -10.1695,3.4152 -15.5,3.5047 M 76.9307,82.5 C 72.8526,85.5547 69.2744,87.503 63.5,88.23 m -47,-45.2256 47,45.2256"
           inkscape:connector-curvature="0"
           style="stroke:#b1a78c" />
      </g>
      <g
         style="opacity:0.4;fill:none"
         id="g1849"
         transform="matrix(0.2098542,0,0,0.26308985,37.068443,395.21428)">
        <g
           clip-path="url(#clip0-6)"
           id="g1847">
          <rect
             id="rect1835"
             height="221"
             width="450"
             x="0"
             y="0"
             style="fill:#ffffff" />
          <path
             d="m 241.686,210.099 c 59.316,1.913 111.809,-32.202 131.029,-48.05 73.346,-60.478 84.678,-104.4762 64.173,-121.758 -2.214,-1.8225 -14.02,8.8176 -45.662,61.411 -18.599,40.7 -87.007,69.383 -113.181,77.949 -48.297,12.941 -76.138,1.766 -83.458,20.81 4.072,11.332 14.697,8.485 47.099,9.638 z"
             id="path1837"
             inkscape:connector-curvature="0"
             style="fill:#ecf3cd;stroke:#c1c3a4;stroke-width:2" />
          <path
             d="m 159.788,215.479 c 2.329,8.693 -110.0486,4.641 -140.5657,-35.84 5.5435,-23.744 146.1187,19.858 140.5657,35.84 z"
             id="path1839"
             inkscape:connector-curvature="0"
             style="fill:#ecf3cd;stroke:#c1c3a4;stroke-width:2" />
          <path
             d="M 347.389,19.2375 C 339.204,17.6662 324.184,60.1371 289.092,72.1282 254.527,93.8133 197.165,94.1718 189.327,111.284 236.536,137.56 300.076,100.243 325.945,78.3002 325.187,90.9266 313.132,109.686 279.429,124.928 207.52,161.796 137.936,149.383 122.412,149.401 42.0138,142.991 9.48623,91.1435 -0.25594,132.059 18.1431,165.952 142.787,192.6 225.374,170.471 331.963,154.851 397.717,62.1748 400.571,51.575 c 8.132,-14.0846 8.721,-87.2293 -24.116,-20.4553 -26.269,53.4192 -34.572,42.91 -33.918,24.0998 12.971,-7.6165 22.861,-32.5251 4.852,-35.982 z"
             id="path1841"
             inkscape:connector-curvature="0"
             style="fill:#ecf3cd;stroke:#c1c3a4;stroke-width:2" />
          <path
             d="m 164.437,116.918 c -3.104,11.598 -36.056,5.174 -52.627,0.642 -21.3637,-8.252 -46.9793,-16.917 -64.6781,-30.8096 28.3908,-13.819 44.6807,-2.8374 67.3841,4.203 25.969,8.0531 53.801,11.4656 49.921,25.9646 z"
             id="path1843"
             inkscape:connector-curvature="0"
             style="fill:#ecf3cd;stroke:#c1c3a4;stroke-width:2" />
          <path
             d="M 37.9253,36.9359 C 52.0767,20.2031 120.836,70.1074 180.707,67.5235 217.551,65.9334 225.856,62.1551 303.008,19.7416 312.325,54.5149 218.51,86.8995 182.727,86.6525 169.641,86.5622 30.5979,77.2045 37.9253,36.9359 Z"
             id="path1845"
             inkscape:connector-curvature="0"
             style="fill:#ecf3cd;stroke:#c1c3a4;stroke-width:2" />
        </g>
      </g>
    </g>
    <g
       id="g2047"
       transform="rotate(-180,909.2545,464.87315)">
      <g
         style="opacity:0.25;fill:none"
         id="g1981"
         transform="matrix(0.50545089,0,0,0.53278071,236.30892,290.34724)">
        <g
           clip-path="url(#clip0)"
           id="g1979"
           transform="matrix(0.5905652,0,0,0.5905652,-176.4486,671.42857)"
           style="">
          <rect
             id="rect1963"
             height="321"
             width="450"
             x="0"
             y="0"
             style="fill:#ffffff" />
          <path
             d="m 275.479,6.1841 c -27.2,-11.2 -73.667,-4.66667 -93.5,0 -52,9.6 -72.667,27.6667 -76.5,35.5 19.5,10 166,-4 170,-35.5 z"
             id="path1965"
             inkscape:connector-curvature="0"
             style="fill:#ead1a1;stroke:#c2bba6;stroke-width:2" />
          <circle
             r="34"
             cy="40.684101"
             cx="347.479"
             id="circle1967"
             style="fill:#ead1a1;stroke:#c2bba6;stroke-width:2" />
          <path
             d="m 236.979,99.6841 c -56.8,-17.2 -116.333,2.1669 -139,12.4999 -86.5,39.434 -108.8333,79 -93.49999,101 1.66666,2.333 15.82469,-4.888 59.99999,-47.5 28.5,-34.5 102,-44.5 129.5,-46 50,0 74,18 86,1.5 -1,-12 -12,-12 -43,-21.4999 z"
             id="path1969"
             inkscape:connector-curvature="0"
             style="fill:#ead1a1;stroke:#c2bba6;stroke-width:2" />
          <path
             d="m 317.479,115.684 c 0,-9 107.5,24 126.5,71 -11.5,21.5 -136,-57 -126.5,-71 z"
             id="path1971"
             inkscape:connector-curvature="0"
             style="fill:#ead1a1;stroke:#c2bba6;stroke-width:2" />
          <path
             d="m 85.479,256.684 c 7.5,3.636 33,-33.5 70,-36 39,-12 94.5,2.5 106.5,-12 -38.8,-37.6 -109.833,-18 -140.5,-3.5 4,-12 20.5,-27 57,-33 79,-17 143,13 158,17 76,27 94,85.5 114,48.5 -9,-37.5 -122.5,-95.5 -208,-95.5 -107,-12.5 -194.5,60 -200,69.5 -11.5,11.5 -31,82 18,26 39.2,-44.8 44.5,-32.5 39,-14.5 -14.5,4 -30.5,25.5 -14,33.5 z"
             id="path1973"
             inkscape:connector-curvature="0"
             style="fill:#ead1a1;stroke:#c2bba6;stroke-width:2" />
          <path
             d="m 287.479,209.684 c 6,-10.4 36.167,4.333 51,13 18.5,13.5 41,28.5 54.5,46.5 -31,6 -43.893,-8.823 -64,-21.5 -23,-14.5 -49,-25 -41.5,-38 z"
             id="path1975"
             inkscape:connector-curvature="0"
             style="fill:#ead1a1;stroke:#c2bba6;stroke-width:2" />
          <path
             d="m 388.979,319.684 c -18,12.5 -71.5,-53.5 -130,-66.5 -36,-8 -45,-6.5 -130.5,14.5 0,-36 99,-43 133.5,-33.5 12.617,3.474 144.5,48.5 127,85.5 z"
             id="path1977"
             inkscape:connector-curvature="0"
             style="fill:#ead1a1;stroke:#c3bca7" />
        </g>
      </g>
      <g
         style="opacity:0.3;fill:none"
         id="g1997"
         transform="matrix(0.48287007,0,0,0.48287007,1133.3544,708.07143)">
        <g
           clip-path="url(#clip0-6)"
           id="g1995">
          <rect
             id="rect1983"
             height="221"
             width="450"
             x="0"
             y="0"
             style="fill:#ffffff" />
          <path
             d="m 241.686,210.099 c 59.316,1.913 111.809,-32.202 131.029,-48.05 73.346,-60.478 84.678,-104.4762 64.173,-121.758 -2.214,-1.8225 -14.02,8.8176 -45.662,61.411 -18.599,40.7 -87.007,69.383 -113.181,77.949 -48.297,12.941 -76.138,1.766 -83.458,20.81 4.072,11.332 14.697,8.485 47.099,9.638 z"
             id="path1985"
             inkscape:connector-curvature="0"
             style="fill:#ecf3cd;stroke:#c1c3a4;stroke-width:2" />
          <path
             d="m 159.788,215.479 c 2.329,8.693 -110.0486,4.641 -140.5657,-35.84 5.5435,-23.744 146.1187,19.858 140.5657,35.84 z"
             id="path1987"
             inkscape:connector-curvature="0"
             style="fill:#ecf3cd;stroke:#c1c3a4;stroke-width:2" />
          <path
             d="M 347.389,19.2375 C 339.204,17.6662 324.184,60.1371 289.092,72.1282 254.527,93.8133 197.165,94.1718 189.327,111.284 236.536,137.56 300.076,100.243 325.945,78.3002 325.187,90.9266 313.132,109.686 279.429,124.928 207.52,161.796 137.936,149.383 122.412,149.401 42.0138,142.991 9.48623,91.1435 -0.25594,132.059 18.1431,165.952 142.787,192.6 225.374,170.471 331.963,154.851 397.717,62.1748 400.571,51.575 c 8.132,-14.0846 8.721,-87.2293 -24.116,-20.4553 -26.269,53.4192 -34.572,42.91 -33.918,24.0998 12.971,-7.6165 22.861,-32.5251 4.852,-35.982 z"
             id="path1989"
             inkscape:connector-curvature="0"
             style="fill:#ecf3cd;stroke:#c1c3a4;stroke-width:2" />
          <path
             d="m 164.437,116.918 c -3.104,11.598 -36.056,5.174 -52.627,0.642 -21.3637,-8.252 -46.9793,-16.917 -64.6781,-30.8096 28.3908,-13.819 44.6807,-2.8374 67.3841,4.203 25.969,8.0531 53.801,11.4656 49.921,25.9646 z"
             id="path1991"
             inkscape:connector-curvature="0"
             style="fill:#ecf3cd;stroke:#c1c3a4;stroke-width:2" />
          <path
             d="M 37.9253,36.9359 C 52.0767,20.2031 120.836,70.1074 180.707,67.5235 217.551,65.9334 225.856,62.1551 303.008,19.7416 312.325,54.5149 218.51,86.8995 182.727,86.6525 169.641,86.5622 30.5979,77.2045 37.9253,36.9359 Z"
             id="path1993"
             inkscape:connector-curvature="0"
             style="fill:#ecf3cd;stroke:#c1c3a4;stroke-width:2" />
        </g>
      </g>
      <g
         style="opacity:0.25;fill:none"
         id="g2003"
         transform="matrix(1.3174099,0,0,1.3174099,1451.7441,458.47197)">
        <path
           id="path1999"
           d="M 1.5,40 10,32 1.5,20.5 12.5,23 10,13 17.5,14 19,5 32,10 V 1 l 5.5,4 8,-2.5 44,43 c 0.2703,2.7029 0.4178,6.4509 0.2209,10.5 -0.2437,5.0085 -1.0145,10.4778 -2.7323,15 -1.175,3.0934 -2.7931,5.7436 -4.9886,7.5 -1.865,1.492 -3.504,2.8275 -5.0693,4 C 72.8526,85.5547 69.2744,87.503 63.5,88.23 59.6069,88.7201 54.7157,88.6552 48,88 35.9118,75.9118 15.4069,56.3421 2.76414,41.5 2.33342,40.9944 1.91183,40.4942 1.5,40 Z"
           inkscape:connector-curvature="0"
           style="fill:#e5e8c6" />
        <path
           id="path2001"
           d="M 45.5,2.5 37.5,5 32,1 v 9 L 19,5 17.5,14 10,13 12.5,23 1.5,20.5 10,32 1.5,40 c 0.41183,0.4942 0.83342,0.9944 1.26414,1.5 M 45.5,2.5 l 44,43 c 0.2703,2.7029 0.4178,6.4509 0.2209,10.5 M 45.5,2.5 c 0.432,2.24617 0.6311,6.54328 -0.2244,12 M 2.76414,41.5 C 15.4069,56.3421 35.9118,75.9118 48,88 c 6.7157,0.6552 11.6069,0.7201 15.5,0.23 M 2.76414,41.5 C 6.2428,42.3624 11.2394,43.0927 16.5,43.0044 M 45.2756,14.5 89.7209,56 M 45.2756,14.5 c -0.6049,3.8586 -1.7371,8.2969 -3.6872,13 M 89.7209,56 c -0.2437,5.0085 -1.0145,10.4778 -2.7323,15 M 41.5884,27.5 C 40.976,28.9771 40.2828,30.4804 39.5,32 37.7599,35.3778 35.1212,37.8017 32,39.4997 M 41.5884,27.5 86.9886,71 m 0,0 c -1.175,3.0934 -2.7931,5.7436 -4.9886,7.5 -1.865,1.492 -3.504,2.8275 -5.0693,4 M 32,39.4997 76.9307,82.5 M 32,39.4997 c -4.568,2.4851 -10.1695,3.4152 -15.5,3.5047 M 76.9307,82.5 C 72.8526,85.5547 69.2744,87.503 63.5,88.23 m -47,-45.2256 47,45.2256"
           inkscape:connector-curvature="0"
           style="stroke:#b1a78c" />
      </g>
      <g
         transform="matrix(0.16141673,0,0,0.21627732,1704.176,742.85665)"
         id="g2023"
         style="opacity:0.3;fill:none">
        <g
           transform="matrix(0.5905652,0,0,0.5905652,-176.4486,671.42857)"
           id="g2021"
           clip-path="url(#clip0)">
          <rect
             style="fill:#ffffff"
             y="0"
             x="0"
             width="450"
             height="321"
             id="rect2005" />
          <path
             style="fill:#ead1a1;stroke:#c2bba6;stroke-width:2"
             inkscape:connector-curvature="0"
             id="path2007"
             d="m 275.479,6.1841 c -27.2,-11.2 -73.667,-4.66667 -93.5,0 -52,9.6 -72.667,27.6667 -76.5,35.5 19.5,10 166,-4 170,-35.5 z" />
          <circle
             style="fill:#ead1a1;stroke:#c2bba6;stroke-width:2"
             id="circle2009"
             cx="347.479"
             cy="40.684101"
             r="34" />
          <path
             style="fill:#ead1a1;stroke:#c2bba6;stroke-width:2"
             inkscape:connector-curvature="0"
             id="path2011"
             d="m 236.979,99.6841 c -56.8,-17.2 -116.333,2.1669 -139,12.4999 -86.5,39.434 -108.8333,79 -93.49999,101 1.66666,2.333 15.82469,-4.888 59.99999,-47.5 28.5,-34.5 102,-44.5 129.5,-46 50,0 74,18 86,1.5 -1,-12 -12,-12 -43,-21.4999 z" />
          <path
             style="fill:#ead1a1;stroke:#c2bba6;stroke-width:2"
             inkscape:connector-curvature="0"
             id="path2013"
             d="m 317.479,115.684 c 0,-9 107.5,24 126.5,71 -11.5,21.5 -136,-57 -126.5,-71 z" />
          <path
             style="fill:#ead1a1;stroke:#c2bba6;stroke-width:2"
             inkscape:connector-curvature="0"
             id="path2015"
             d="m 85.479,256.684 c 7.5,3.636 33,-33.5 70,-36 39,-12 94.5,2.5 106.5,-12 -38.8,-37.6 -109.833,-18 -140.5,-3.5 4,-12 20.5,-27 57,-33 79,-17 143,13 158,17 76,27 94,85.5 114,48.5 -9,-37.5 -122.5,-95.5 -208,-95.5 -107,-12.5 -194.5,60 -200,69.5 -11.5,11.5 -31,82 18,26 39.2,-44.8 44.5,-32.5 39,-14.5 -14.5,4 -30.5,25.5 -14,33.5 z" />
          <path
             style="fill:#ead1a1;stroke:#c2bba6;stroke-width:2"
             inkscape:connector-curvature="0"
             id="path2017"
             d="m 287.479,209.684 c 6,-10.4 36.167,4.333 51,13 18.5,13.5 41,28.5 54.5,46.5 -31,6 -43.893,-8.823 -64,-21.5 -23,-14.5 -49,-25 -41.5,-38 z" />
          <path
             style="fill:#ead1a1;stroke:#c3bca7"
             inkscape:connector-curvature="0"
             id="path2019"
             d="m 388.979,319.684 c -18,12.5 -71.5,-53.5 -130,-66.5 -36,-8 -45,-6.5 -130.5,14.5 0,-36 99,-43 133.5,-33.5 12.617,3.474 144.5,48.5 127,85.5 z" />
        </g>
      </g>
      <g
         transform="matrix(0.84060438,0,0,0.83774391,597.67055,735.54819)"
         id="g2029"
         style="opacity:0.3;fill:none">
        <path
           style="fill:#e5e8c6"
           inkscape:connector-curvature="0"
           d="M 1.5,40 10,32 1.5,20.5 12.5,23 10,13 17.5,14 19,5 32,10 V 1 l 5.5,4 8,-2.5 44,43 c 0.2703,2.7029 0.4178,6.4509 0.2209,10.5 -0.2437,5.0085 -1.0145,10.4778 -2.7323,15 -1.175,3.0934 -2.7931,5.7436 -4.9886,7.5 -1.865,1.492 -3.504,2.8275 -5.0693,4 C 72.8526,85.5547 69.2744,87.503 63.5,88.23 59.6069,88.7201 54.7157,88.6552 48,88 35.9118,75.9118 15.4069,56.3421 2.76414,41.5 2.33342,40.9944 1.91183,40.4942 1.5,40 Z"
           id="path2025" />
        <path
           style="stroke:#b1a78c"
           inkscape:connector-curvature="0"
           d="M 45.5,2.5 37.5,5 32,1 v 9 L 19,5 17.5,14 10,13 12.5,23 1.5,20.5 10,32 1.5,40 c 0.41183,0.4942 0.83342,0.9944 1.26414,1.5 M 45.5,2.5 l 44,43 c 0.2703,2.7029 0.4178,6.4509 0.2209,10.5 M 45.5,2.5 c 0.432,2.24617 0.6311,6.54328 -0.2244,12 M 2.76414,41.5 C 15.4069,56.3421 35.9118,75.9118 48,88 c 6.7157,0.6552 11.6069,0.7201 15.5,0.23 M 2.76414,41.5 C 6.2428,42.3624 11.2394,43.0927 16.5,43.0044 M 45.2756,14.5 89.7209,56 M 45.2756,14.5 c -0.6049,3.8586 -1.7371,8.2969 -3.6872,13 M 89.7209,56 c -0.2437,5.0085 -1.0145,10.4778 -2.7323,15 M 41.5884,27.5 C 40.976,28.9771 40.2828,30.4804 39.5,32 37.7599,35.3778 35.1212,37.8017 32,39.4997 M 41.5884,27.5 86.9886,71 m 0,0 c -1.175,3.0934 -2.7931,5.7436 -4.9886,7.5 -1.865,1.492 -3.504,2.8275 -5.0693,4 M 32,39.4997 76.9307,82.5 M 32,39.4997 c -4.568,2.4851 -10.1695,3.4152 -15.5,3.5047 M 76.9307,82.5 C 72.8526,85.5547 69.2744,87.503 63.5,88.23 m -47,-45.2256 47,45.2256"
           id="path2027" />
      </g>
      <g
         transform="matrix(0.2098542,0,0,0.26308985,37.068443,395.21428)"
         id="g2045"
         style="opacity:0.4;fill:none">
        <g
           id="g2043"
           clip-path="url(#clip0-6)">
          <rect
             style="fill:#ffffff"
             y="0"
             x="0"
             width="450"
             height="221"
             id="rect2031" />
          <path
             style="fill:#ecf3cd;stroke:#c1c3a4;stroke-width:2"
             inkscape:connector-curvature="0"
             id="path2033"
             d="m 241.686,210.099 c 59.316,1.913 111.809,-32.202 131.029,-48.05 73.346,-60.478 84.678,-104.4762 64.173,-121.758 -2.214,-1.8225 -14.02,8.8176 -45.662,61.411 -18.599,40.7 -87.007,69.383 -113.181,77.949 -48.297,12.941 -76.138,1.766 -83.458,20.81 4.072,11.332 14.697,8.485 47.099,9.638 z" />
          <path
             style="fill:#ecf3cd;stroke:#c1c3a4;stroke-width:2"
             inkscape:connector-curvature="0"
             id="path2035"
             d="m 159.788,215.479 c 2.329,8.693 -110.0486,4.641 -140.5657,-35.84 5.5435,-23.744 146.1187,19.858 140.5657,35.84 z" />
          <path
             style="fill:#ecf3cd;stroke:#c1c3a4;stroke-width:2"
             inkscape:connector-curvature="0"
             id="path2037"
             d="M 347.389,19.2375 C 339.204,17.6662 324.184,60.1371 289.092,72.1282 254.527,93.8133 197.165,94.1718 189.327,111.284 236.536,137.56 300.076,100.243 325.945,78.3002 325.187,90.9266 313.132,109.686 279.429,124.928 207.52,161.796 137.936,149.383 122.412,149.401 42.0138,142.991 9.48623,91.1435 -0.25594,132.059 18.1431,165.952 142.787,192.6 225.374,170.471 331.963,154.851 397.717,62.1748 400.571,51.575 c 8.132,-14.0846 8.721,-87.2293 -24.116,-20.4553 -26.269,53.4192 -34.572,42.91 -33.918,24.0998 12.971,-7.6165 22.861,-32.5251 4.852,-35.982 z" />
          <path
             style="fill:#ecf3cd;stroke:#c1c3a4;stroke-width:2"
             inkscape:connector-curvature="0"
             id="path2039"
             d="m 164.437,116.918 c -3.104,11.598 -36.056,5.174 -52.627,0.642 -21.3637,-8.252 -46.9793,-16.917 -64.6781,-30.8096 28.3908,-13.819 44.6807,-2.8374 67.3841,4.203 25.969,8.0531 53.801,11.4656 49.921,25.9646 z" />
          <path
             style="fill:#ecf3cd;stroke:#c1c3a4;stroke-width:2"
             inkscape:connector-curvature="0"
             id="path2041"
             d="M 37.9253,36.9359 C 52.0767,20.2031 120.836,70.1074 180.707,67.5235 217.551,65.9334 225.856,62.1551 303.008,19.7416 312.325,54.5149 218.51,86.8995 182.727,86.6525 169.641,86.5622 30.5979,77.2045 37.9253,36.9359 Z" />
        </g>
      </g>
    </g>
  </g>
</svg>
